PathFileType	4	(X/Y/Z)	27_1_11_p1_0-1266.trc
DataRate	CameraRate	NumFrames	NumMarkers	Units	OrigDataRate	OrigDataStartFrame	OrigNumFrames
59.0	59.0	6	27	m	59.0	158	1267
Frame#	Time	RHip			RKnee			RAnkle			RBigToe			RSmallToe			RHeel			LHip			LKnee			LAnkle			LBigToe			LSmallToe			LHeel			Neck			Head			Nose			RShoulder			RElbow			RWrist			RThumb			RIndex			RPinky			LShoulder			LElbow			LWrist			LThumb			LIndex			LPinky			
		X1	Y1	Z1	X2	Y2	Z2	X3	Y3	Z3	X4	Y4	Z4	X5	Y5	Z5	X6	Y6	Z6	X7	Y7	Z7	X8	Y8	Z8	X9	Y9	Z9	X10	Y10	Z10	X11	Y11	Z11	X12	Y12	Z12	X13	Y13	Z13	X14	Y14	Z14	X15	Y15	Z15	X16	Y16	Z16	X17	Y17	Z17	X18	Y18	Z18	X19	Y19	Z19	X20	Y20	Z20	X21	Y21	Z21	X22	Y22	Z22	X23	Y23	Z23	X24	Y24	Z24	X25	Y25	Z25	X26	Y26	Z26	X27	Y27	Z27	
158	2.6779661016949152	0.15657124177405427	0.6774324582205594	1.0351168193863785	0.15913145210730117	0.7310873899705073	1.4388664555648345	0.17231278523236976	0.8178743539504313	1.8447342104908901	0.13569340837154772	0.6216573466529173	1.8556860579510044	0.19259257021726262	0.6147194660892858	1.8345648716842684	0.16280357357796188	0.9120198114396927	1.9174331224272556	-0.03316781324286734	0.6544244356860424	1.0377393266952954	-0.030690797934602516	0.7602085401366888	1.442478373613794	-0.026256925260194693	0.8144586039627636	1.8345291816667222	-0.028696941205478915	0.6198264807730979	1.8348015887375855	-0.07779208869326185	0.666076898889485	1.842016743604975	-0.0011596967397690188	0.8824113733876081	1.896837533160352	0.04483831747566389	0.579936001315179	0.49439773090108496	0.03960436629916323	0.5363413883255687	0.24625230663773529	0.04598778598920286	0.49619232498074195	0.38484377294946015	0.1787947953046711	0.5946317456938428	0.5882337340382551	0.2437507498664754	0.6390277981493651	0.833091284133848	0.19475496129206868	0.47034293650716696	0.7054801373396207	0.13053082212706338	0.4971682304798149	0.5923495821473989	0.12604894140141348	0.44675461686383655	0.5940231257246429	0.13391810387024827	0.3963503142839384	0.65225950474605	-0.0970357682109935	0.6556591027676327	0.5882881514279058	-0.13189817765080405	0.6533590362218925	0.8142789196566712	-0.12828530196957047	0.6096215639730335	1.0449439377550351	-0.09988365874172435	0.5698889817902129	1.129943338316797	-0.1258500835100307	0.5751677109920912	1.146864336615089	-0.15150028739034316	0.6017164832009775	1.159714326599014
159	2.694915254237288	0.1565608439532382	0.6775121732918182	1.0352434918543496	0.15941408637782561	0.7300695552848706	1.442495076582271	0.17231937865304786	0.8177602057065164	1.8446447901513923	0.13564362871844404	0.6216097259395172	1.8558302431010667	0.19251498146165164	0.6146087089684412	1.8346031823239206	0.1627627535159526	0.9119818534014542	1.9174772983003854	-0.03315315331009067	0.6544890116489294	1.0377862529871127	-0.03041854592057827	0.7594516296181292	1.4463664150839022	-0.027572907543747527	0.8119957985661134	1.8289553411640893	-0.028709435969928258	0.6197264221546859	1.8349494841985965	-0.08206486217054405	0.6524102718116054	1.8353815580539805	-0.006158170868203007	0.8793273631058168	1.895185988994422	0.04490304371916756	0.5798168500835922	0.4943724616475881	0.039596759680900234	0.5363120697391459	0.24622885203099734	0.04599018048246272	0.4961721780968668	0.3848553177678362	0.17876942452111974	0.5946705263796889	0.5882141225765904	0.24377870830505277	0.6391390172367887	0.8331284955413595	0.19557103347137575	0.471530220302443	0.7093246829224363	0.13069618178899928	0.4975852215417927	0.5924060171041111	0.1262150634282502	0.44720514985225135	0.5941738645865036	0.13382376663861864	0.39657566741498995	0.6524866456433309	-0.09701903065195219	0.6557663087656251	0.5882314207540896	-0.13193747229544164	0.6532295976540979	0.8142109184091222	-0.1326175814791094	0.6090585194487537	1.0449476281976922	-0.10040148249401777	0.5699476672494697	1.1327093487448867	-0.12652306934463356	0.5753555825548151	1.1501645454408564	-0.151645226329298	0.6017697700366679	1.1594919608712304
160	2.711864406779661	0.1568473877644527	0.6768524518472456	1.0388873738123539	0.16064059760363206	0.7318273163256904	1.4477876913950023	0.17103150534169334	0.8372810294830744	1.8591386733199111	0.13088211687750187	0.609108971780391	1.849336175074843	0.19240627490585488	0.6148796770211717	1.834710200377398	0.16275188382464578	0.9122817643143024	1.9177318200875542	-0.033237565017123376	0.6541712935918143	1.0376806072667846	-0.030357946501717213	0.7596592740806042	1.446325501208454	-0.02627426354937773	0.8145829161982167	1.8346364841750766	-0.028768278433534866	0.6195543131579453	1.835001930684755	-0.08222124701706934	0.6523994930192978	1.8354765648599822	-0.006069676640249845	0.8798028499143832	1.8953642243091118	0.04494974078209309	0.5797578559739837	0.49439716049000615	0.039678040280818616	0.5363269777445472	0.2463095430023495	0.046072638432487927	0.4957984871748225	0.38496519953827896	0.17459496157177837	0.594526368580483	0.5884059337687221	0.2439392970669513	0.6388271533131737	0.8330525634249376	0.19154663360669666	0.4708115568267218	0.7094088382504109	0.13067331079090855	0.49757659378557695	0.5923204526082972	0.12595959838758605	0.44738988200977936	0.5905019145163538	0.13327247492014943	0.39734348649279083	0.6557039646538649	-0.0970942607923416	0.6557662083679612	0.5882314887551995	-0.1313749098304068	0.6546596685353631	0.8178954292067716	-0.1326134648514081	0.6092425262371343	1.044993346108943	-0.1034736231829478	0.582235715244093	1.1297323845141305	-0.12576139620583016	0.5750015202647405	1.1467407373448293	-0.15530736159229733	0.5894254003856917	1.1557434787260532
161	2.7288135593220337	0.15686679771806616	0.6769080701882593	1.038895492535656	0.1594472353831301	0.73006185148178	1.4425421706018364	0.1663055327914621	0.8371879437586396	1.8592631380332088	0.13569408223653176	0.6223077079893914	1.8560919192624235	0.19252754578558476	0.6151894555984021	1.8347704187263663	0.1626947320095247	0.9123714692662827	1.9178505019730947	-0.03322440108475108	0.6541288661820392	1.037696189366612	-0.030454106282732034	0.7590214380624474	1.4463002563539809	-0.02622067665805649	0.8143860644839623	1.834581575020767	-0.028736448646004813	0.6197575432558295	1.8348567568762248	-0.07795680999430435	0.6660099646716278	1.8420875158758017	-0.000867504493629615	0.8824736814100919	1.896745384587658	0.045006150871265964	0.5798886554994204	0.4944290861872875	0.03978168655589195	0.5366044506816753	0.24641968633120812	0.046070860218459776	0.4958220847885626	0.38498354565176895	0.17875007030968512	0.5945959639097718	0.5845316927836786	0.24394622042240333	0.6388935130453696	0.8331017043728152	0.19149592770159873	0.4708297555469514	0.7093839470479447	0.1296506402913752	0.4956907279114022	0.5890789010748809	0.1258729600792837	0.44663006804445887	0.5900911575366502	0.13255733482682486	0.39767561495706316	0.65263855800273	-0.1011801832992929	0.6547570284580574	0.5883516409829763	-0.13175691576964862	0.6527173713495786	0.81045165313038	-0.1326835415208428	0.6091556433266676	1.04492082997194	-0.10354005127552308	0.5823145055160239	1.129696005919317	-0.12638214291307506	0.5752038890122239	1.149823838853592	-0.15567358448163418	0.5901009408715617	1.1520793651476726
162	2.7457627118644066	0.15436669956210125	0.691797893223564	1.0427785908656173	0.15942635405178157	0.7301122206673387	1.4425143057221852	0.1648732506511904	0.8351366060703247	1.8533726554729693	0.13562956867353795	0.6221050765403561	1.8561328743906738	0.19772063645617277	0.6286111135116571	1.8415296170169344	0.16261811924762457	0.9123311035260228	1.9176861217698202	-0.03696813863200512	0.668101260590931	1.0413594582412298	-0.030315368502127057	0.7591125000019827	1.446244081108701	-0.026228981824860227	0.8145546963720243	1.834585653949131	-0.028730124229381343	0.6198325366027445	1.8348622944347326	-0.07792942170105123	0.6659725839535688	1.8419774558832596	-0.0011508917203804678	0.8819156406269405	1.8964985115262896	0.0451131888300442	0.5795435423463345	0.4943955002445679	0.03981857832336356	0.5363311478023626	0.24624593581090037	0.04602671954505638	0.4957198308678428	0.38804687862334525	0.1786508932735659	0.594820105910157	0.5883477281875386	0.24489078554430233	0.6402398817610861	0.8369345885136991	0.19142125592277226	0.4708553569002847	0.7094273321843948	0.1294717182846719	0.49667799927068673	0.5894189735844225	0.12268073452492509	0.4589424300889117	0.5887505708090465	0.12572216551831084	0.41024623254411446	0.6577726227150258	-0.10118243495800984	0.654721525836073	0.5883256278876502	-0.13145094026895962	0.6545869919992158	0.8103095716329396	-0.13623480590424036	0.6219410602574895	1.0483029004849067	-0.10333005607859684	0.5817900688297518	1.1335106369878376	-0.1258436330903149	0.5747835189579766	1.1464634375029412	-0.1556411687498385	0.5901796796446664	1.1520819990328126
163	2.76271186440678	0.15540851928532756	0.6934890430397522	1.0474671745037136	0.16001815978614004	0.7323991834189104	1.452473203293989	0.1695799611175495	0.8354053631544331	1.8534370739433443	0.1356035272385189	0.6221912953498828	1.8561276268450413	0.1923944892162176	0.6146641256380484	1.8346349220592024	0.16265578253426266	0.9123687557593553	1.917786414066272	-0.03707415641854942	0.6681992890974128	1.0414924821726264	-0.030452804861955767	0.7591410689826286	1.4464489792614499	-0.026178530440906473	0.8144570048288614	1.8345798663569353	-0.028764785953792702	0.6199320954435702	1.8348743962687277	-0.07787667217063395	0.6663953613731921	1.8422667777068789	-0.006074250653414767	0.8791058676280251	1.8950153054289474	0.04522534401730659	0.5797149668876733	0.49446120132676863	0.03981106386552469	0.5361166667753154	0.24624072083180917	0.04601775328941307	0.49566692540793267	0.3880601756770878	0.17872027447189473	0.5949462369883071	0.5883551521361393	0.2441845804067805	0.6389911115067766	0.8332718770999618	0.18912192326201213	0.4840086064170508	0.7114644840754606	0.1290377490091366	0.4970251093748434	0.589551311845871	0.12204273401924494	0.45904028990552187	0.5889364802749972	0.1253109194230504	0.4105285309612094	0.6579647000576233	-0.10118056849217555	0.6546205142644751	0.5884783915840152	-0.13484695082236625	0.6679826551315959	0.816827740809252	-0.13633616460953057	0.6218471960166639	1.0483477649176398	-0.10066487376205241	0.5705275933855956	1.128844467225435	-0.12626093323705528	0.5747187887198334	1.149363138153168	-0.1557187447567257	0.5898625028892056	1.15206994087584
